<svg width="36" height="36" viewBox="0 0 36 36" fill="none" xmlns="http://www.w3.org/2000/svg">
<path d="M17.9404 0C27.8482 0.000231928 35.8799 8.03258 35.8799 17.9404C35.8797 27.8481 27.8481 35.8797 17.9404 35.8799C8.03258 35.8799 0.000231942 27.8482 0 17.9404C0 8.03244 8.03244 0 17.9404 0ZM11.4814 10.5C10.9584 10.5 10.4402 10.6035 9.95703 10.8037C9.47393 11.004 9.03471 11.2971 8.66504 11.667C8.2953 12.037 8.00266 12.4766 7.80273 12.96C7.60281 13.4433 7.49965 13.9613 7.5 14.4844V21.5635C7.4997 22.0865 7.60284 22.6046 7.80273 23.0879C8.00262 23.571 8.29551 24.01 8.66504 24.3799C9.03475 24.7498 9.47386 25.0439 9.95703 25.2441C10.4402 25.4444 10.9584 25.5478 11.4814 25.5479H24.5713C25.0943 25.5478 25.6125 25.4444 26.0957 25.2441C26.5788 25.0439 27.018 24.7498 27.3877 24.3799C27.7572 24.01 28.0501 23.571 28.25 23.0879C28.4499 22.6046 28.553 22.0865 28.5527 21.5635V14.4844C28.5531 13.9613 28.4499 13.4433 28.25 12.96C28.0501 12.4766 27.7574 12.037 27.3877 11.667C27.018 11.2971 26.5788 11.004 26.0957 10.8037C25.6125 10.6035 25.0943 10.5 24.5713 10.5H11.4814ZM20.7998 18.0234L15.2529 21.25V14.7979L20.7998 18.0234Z" fill="white"/>
</svg>
