<svg xmlns="http://www.w3.org/2000/svg" width="34" height="34" viewBox="0 0 34 34"><circle cx="17" cy="17" r="15.25" fill="none" stroke="#ffffff" stroke-opacity="0.8" stroke-width="1.5"/><g transform="translate(9,9) scale(0.6667)"><path d="M12 24C5.385 24 0 18.615 0 12S5.385 0 12 0s12 5.385 12 12-5.385 12-12 12zm10.12-10.358c-.35-.11-3.17-.953-6.384-.438 1.34 3.684 1.887 6.684 1.992 7.308a10.507 10.507 0 004.395-6.87zm-6.115 7.808c-.153-.9-.75-4.032-2.19-7.77l-.066.02c-5.79 2.015-7.86 6.025-8.04 6.4a10.461 10.461 0 006.29 2.1c1.37 0 2.685-.275 3.9-.75zm-8.44-2.765c.24-.42 3.01-4.83 8.265-6.485.24-.075.487-.14.73-.195a23.618 23.618 0 00-.53-1.155C10.5 11.754 5.3 11.7 4.93 11.7h-.418c0 1.87.474 3.625 1.303 5.15zm-1.2-7.13H5.2c.41 0 5.09.07 9.12-1.25A88.28 88.28 0 0011.835 3.1C8.5 4.56 5.978 7.115 4.366 10.355zm9.21-8.13c.59 1.27 1.75 3.87 2.675 6.44 2.685-.915 4.86-2.375 6.12-4.13A10.493 10.493 0 0013.575 2.225zm7.64 6.74a11.147 11.147 0 01-5.878 4.028c.178.45.342.91.498 1.367.06.18.12.36.178.536 3.47-.435 6.917.268 7.224.338-.025-2.298-.777-4.42-2.02-6.27z" fill="#ffffff"/></g></svg>