<svg width="36" height="36" viewBox="0 0 36 36" fill="none" xmlns="http://www.w3.org/2000/svg">
<path d="M17.9422 21.71C20.0231 21.71 21.71 20.0231 21.71 17.9422C21.71 15.8612 20.0231 14.1743 17.9422 14.1743C15.8612 14.1743 14.1743 15.8612 14.1743 17.9422C14.1743 20.0231 15.8612 21.71 17.9422 21.71Z" fill="white"/>
<path d="M17.9422 0C8.033 0 0 8.033 0 17.9422C0 27.8514 8.033 35.8844 17.9422 35.8844C27.8514 35.8844 35.8844 27.8514 35.8844 17.9422C35.8844 8.033 27.8514 0 17.9422 0ZM29.0274 22.5024C28.9413 24.2082 28.462 25.8903 27.2189 27.1202C25.9637 28.3618 24.2736 28.8244 22.5514 28.9097H13.333C11.6106 28.8244 9.92073 28.3621 8.66557 27.1202C7.42239 25.8903 6.94312 24.2082 6.857 22.5024V13.382C6.94312 11.6762 7.42246 9.99408 8.66557 8.76411C9.92073 7.52251 11.6108 7.05989 13.333 6.9747H22.5513C24.2738 7.05989 25.9636 7.52229 27.2188 8.76411C28.462 9.99408 28.9412 11.6762 29.0274 13.382L29.0274 22.5024Z" fill="white"/>
<path d="M22.4351 9.05277C20.1897 8.9912 15.6956 8.9912 13.4502 9.05277C12.2818 9.08486 10.9571 9.37573 10.1246 10.2649C9.2595 11.1893 8.93259 12.306 8.89944 13.5553C8.84116 15.7479 8.89944 22.3291 8.89944 22.3291C8.9374 23.5783 9.2595 24.6951 10.1246 25.6194C10.9571 26.5089 12.2818 26.7995 13.4502 26.8316C15.6956 26.8932 20.1897 26.8932 22.4351 26.8316C23.6036 26.7995 24.9282 26.5086 25.7607 25.6194C26.6258 24.6951 26.9527 23.5784 26.9859 22.3291V13.5553C26.9527 12.306 26.6258 11.1893 25.7607 10.2649C24.9279 9.37545 23.6033 9.08486 22.4351 9.05277ZM17.9424 23.7824C16.7873 23.7824 15.6581 23.4398 14.6977 22.7981C13.7373 22.1564 12.9888 21.2443 12.5467 20.1771C12.1047 19.11 11.9891 17.9357 12.2144 16.8028C12.4397 15.6699 12.996 14.6293 13.8127 13.8126C14.6295 12.9958 15.6701 12.4396 16.803 12.2142C17.9359 11.9889 19.1102 12.1045 20.1773 12.5466C21.2445 12.9886 22.1566 13.7371 22.7983 14.6976C23.44 15.658 23.7825 16.7871 23.7825 17.9422C23.7825 19.4911 23.1672 20.9766 22.072 22.0718C20.9767 23.1671 19.4913 23.7824 17.9424 23.7824ZM23.8074 13.3075C23.5764 13.3075 23.3506 13.2389 23.1585 13.1105C22.9665 12.9821 22.8168 12.7997 22.7285 12.5863C22.6401 12.3728 22.617 12.138 22.6621 11.9114C22.7072 11.6849 22.8185 11.4768 22.9818 11.3134C23.1452 11.1501 23.3533 11.0389 23.5799 10.9939C23.8065 10.9488 24.0413 10.972 24.2547 11.0604C24.4681 11.1488 24.6505 11.2985 24.7789 11.4906C24.9072 11.6827 24.9757 11.9085 24.9757 12.1395C24.9757 12.2929 24.9455 12.4448 24.8868 12.5865C24.828 12.7283 24.742 12.857 24.6335 12.9655C24.525 13.074 24.3962 13.16 24.2545 13.2187C24.1127 13.2774 23.9608 13.3075 23.8074 13.3075Z" fill="white"/>
</svg>
