<svg width="36" height="36" viewBox="0 0 36 36" fill="none" xmlns="http://www.w3.org/2000/svg">
<path d="M17.9424 0C27.8515 0.000111326 35.8848 8.03326 35.8848 17.9424C35.8847 27.8514 27.8514 35.8847 17.9424 35.8848C8.03326 35.8848 0.000111334 27.8515 0 17.9424C0 8.03319 8.03319 0 17.9424 0ZM15.3018 19.3457L6.65039 29.4248H9.00391L16.3203 20.877L22.1729 29.4248H29.4248L20.3916 16.2197L28.7891 6.45898H26.4355L19.374 14.6885L13.7119 6.45898H6.45898L15.3018 19.3457ZM18.0381 16.1562L19.0557 17.6865L25.7988 27.5117H23.1904L17.6562 19.4092L16.6377 17.8779L10.085 8.37305H12.6934L18.0381 16.1562Z" fill="white"/>
</svg>
