<svg width="36" height="36" viewBox="0 0 36 36" fill="none" xmlns="http://www.w3.org/2000/svg">
<path d="M9.0249 15.8647C9.32109 14.6138 9.87733 13.4392 10.6574 12.4175C11.4375 11.3957 12.424 10.5497 13.5527 9.93433C14.9407 11.4734 16.153 13.1623 17.1672 14.9698C14.6018 16.0685 11.7677 16.38 9.0249 15.8647Z" fill="white"/>
<path d="M11.2125 24.1273C9.64601 22.4472 8.77221 20.2372 8.76611 17.9401C9.71079 18.0865 10.6644 18.1683 11.6202 18.1847C13.8574 18.1771 16.0683 17.7022 18.1112 16.7903C18.3681 17.3285 18.5964 17.8565 18.8166 18.4212C15.7641 19.5122 13.1132 21.5015 11.2125 24.1273Z" fill="white"/>
<path d="M19.4954 20.3252C20.1436 22.3739 20.554 24.4903 20.7186 26.6327C19.3928 27.0908 17.9768 27.2255 16.5885 27.0255C15.2002 26.8255 13.8798 26.2966 12.7373 25.4829C14.4029 23.1067 16.7639 21.3048 19.4954 20.3252Z" fill="white"/>
<path d="M18.988 14.0443C18.0074 12.2923 16.8509 10.6448 15.5366 9.12707C16.7919 8.75955 18.1129 8.67424 19.4049 8.87725C20.697 9.08026 21.9282 9.56657 23.0103 10.3013C21.926 11.7989 20.5597 13.0704 18.988 14.0443Z" fill="white"/>
<path d="M26.9221 19.7747C26.6617 21.0112 26.149 22.1807 25.4163 23.2102C24.6835 24.2397 23.7464 25.107 22.6634 25.7581C22.4661 23.7277 22.0617 21.7228 21.4565 19.7747C23.2607 19.4159 25.1179 19.4159 26.9221 19.7747Z" fill="white"/>
<path d="M24.5739 11.6365C26.1418 13.2863 27.0393 15.4607 27.0916 17.7361C24.9996 17.3496 22.8519 17.38 20.7718 17.8258C20.5129 17.1591 20.2357 16.5027 19.9258 15.8544C21.7351 14.7647 23.3141 13.3318 24.5739 11.6365Z" fill="white"/>
<path d="M17.94 0C14.3918 0 10.9233 1.05216 7.97308 3.02343C5.02286 4.99471 2.72344 7.79655 1.36561 11.0747C0.00777318 14.3528 -0.347499 17.9599 0.34472 21.4399C1.03694 24.9199 2.74556 28.1165 5.25451 30.6255C7.76346 33.1344 10.9601 34.8431 14.4401 35.5353C17.9201 36.2275 21.5272 35.8722 24.8053 34.5144C28.0834 33.1566 30.8853 30.8571 32.8566 27.9069C34.8278 24.9567 35.88 21.4882 35.88 17.94C35.88 13.182 33.9899 8.61891 30.6255 5.2545C27.2611 1.8901 22.698 0 17.94 0ZM17.94 29.1525C15.7224 29.1525 13.5546 28.4949 11.7107 27.2628C9.86679 26.0308 8.42965 24.2797 7.58101 22.2308C6.73236 20.182 6.51031 17.9276 6.94295 15.7525C7.37559 13.5775 8.44347 11.5797 10.0116 10.0116C11.5797 8.44347 13.5775 7.37558 15.7526 6.94294C17.9276 6.51031 20.182 6.73235 22.2308 7.581C24.2797 8.42965 26.0308 9.86678 27.2629 11.7107C28.4949 13.5546 29.1525 15.7224 29.1525 17.94C29.1487 20.9126 27.9662 23.7623 25.8643 25.8643C23.7623 27.9662 20.9126 29.1487 17.94 29.1525Z" fill="white"/>
</svg>
