<svg width="36" height="36" viewBox="0 0 36 36" fill="none" xmlns="http://www.w3.org/2000/svg">
<path d="M17.9422 0C8.0345 0 0 8.0345 0 17.9422C0 27.8499 8.0345 35.8844 17.9422 35.8844C27.8499 35.8844 35.8844 27.8499 35.8844 17.9422C35.8844 8.0345 27.8499 0 17.9422 0ZM12.7284 27.1235H8.35865V13.9771H12.7284V27.1235ZM10.5437 12.1819H10.5152C9.04884 12.1819 8.10048 11.1725 8.10048 9.91096C8.10048 8.62093 9.07786 7.63944 10.5727 7.63944C12.0675 7.63944 12.9874 8.62093 13.0159 9.91096C13.0159 11.1725 12.0675 12.1819 10.5437 12.1819ZM28.4847 27.1235H24.1155V20.0905C24.1155 18.323 23.4829 17.1176 21.9018 17.1176C20.6947 17.1176 19.9758 17.9307 19.6598 18.7156C19.5443 18.9965 19.5161 19.3891 19.5161 19.7819V27.1235H15.1467C15.1467 27.1235 15.2039 15.2104 15.1467 13.9771H19.5161V15.8385C20.0968 14.9427 21.1358 13.6685 23.4541 13.6685C26.329 13.6685 28.4847 15.5475 28.4847 19.5854V27.1235Z" fill="white"/>
</svg>
